<svg width="49" height="77" viewBox="0 0 49 77" fill="none" xmlns="http://www.w3.org/2000/svg">
<path d="M40.5996 0C45.0196 0 48.5996 3.58 48.5996 8V52.8604C48.5994 66.1102 37.8495 76.8604 24.5996 76.8604H24C10.7501 76.8604 0.000189834 66.1102 0 52.8604V8C0 3.58 3.58 0 8 0H40.5996ZM7.87012 52.96C7.87012 56.1399 8.54998 58.9399 9.91992 61.3398C11.2899 63.7398 13.2104 65.6002 15.6904 66.9102C18.1603 68.22 21.0106 68.8799 24.2305 68.8799C27.4501 68.8798 30.2998 68.2299 32.7695 66.9102C35.2495 65.6002 37.17 63.7398 38.54 61.3398C39.91 58.9399 40.5898 56.1499 40.5898 52.96V27.8301H32.9199L32.9297 27.8398V52.9805C32.9296 54.6503 32.5497 56.1701 31.7998 57.5C31.0498 58.84 29.9899 59.9002 28.6699 60.6602C27.35 61.4101 25.8697 61.79 24.2598 61.79C22.6499 61.79 21.2096 61.4204 19.8896 60.6904C18.5597 59.9504 17.5002 58.8898 16.7402 57.5498C15.9803 56.2198 15.5898 54.6797 15.5898 52.9697V27.8301H7.87012V52.96ZM17.29 52.9697C17.29 54.3797 17.6 55.63 18.21 56.71C18.82 57.78 19.66 58.6202 20.71 59.2002L20.7197 59.21C21.7796 59.7999 22.9697 60.0995 24.2695 60.0996C25.5695 60.0996 26.7801 59.7904 27.8301 59.1904C28.9001 58.5804 29.7103 57.7599 30.3203 56.6699C30.9202 55.5901 31.2304 54.3502 31.2305 52.9805V27.8398H27.71V53.3496C27.71 53.9996 27.5598 54.5999 27.2598 55.1299C26.9598 55.6699 26.5398 56.0897 26.0098 56.3896C25.4898 56.6896 24.8998 56.8398 24.2598 56.8398C23.62 56.8398 23.0501 56.6902 22.5303 56.4004C22.0003 56.1004 21.5698 55.6796 21.2598 55.1396C20.9599 54.6097 20.8096 54.0097 20.8096 53.3398V27.8301H17.29V52.9697ZM22.5098 53.3604C22.5098 53.7302 22.5903 54.0504 22.7402 54.3203C22.8901 54.59 23.0899 54.7898 23.3496 54.9297H23.3604C23.9003 55.2296 24.63 55.2297 25.1699 54.9297C25.4299 54.7797 25.6303 54.5795 25.7803 54.3096C25.9301 54.0298 26.0097 53.72 26.0098 53.3604V27.8496H22.5098V53.3604ZM8.03027 15.3398C8.03027 16.2698 8.2299 17.09 8.62988 17.79C9.02981 18.4899 9.58976 19.0399 10.3096 19.4199H10.2998C11.0297 19.8099 11.8599 20 12.7998 20C13.7397 20 14.5798 19.7999 15.2998 19.4199C16.0198 19.0299 16.5805 18.49 16.9805 17.79C17.3804 17.0901 17.5801 16.2698 17.5801 15.3398V8H15.3301V15.3203C15.33 15.8102 15.22 16.2605 15 16.6504C14.78 17.0402 14.4797 17.3504 14.0898 17.5703C13.6999 17.7902 13.2697 17.9004 12.7998 17.9004C12.3301 17.9004 11.9003 17.7899 11.5205 17.5801C11.1405 17.3701 10.8303 17.0599 10.6104 16.6699C10.3904 16.27 10.2803 15.8302 10.2803 15.3203V8H8.03027V15.3398ZM35.7803 7.74023C34.9604 7.74023 34.2302 7.87974 33.5703 8.13965C32.9103 8.40965 32.3898 8.80008 32.0098 9.33008C31.6199 9.85005 31.4297 10.5001 31.4297 11.25C31.4297 11.93 31.5701 12.4902 31.8701 12.9102C32.1701 13.3301 32.5002 13.6399 32.8701 13.8398C33.25 14.0398 33.6497 14.2003 34.0996 14.3203L37.1504 15.2197C37.5702 15.3497 37.8701 15.51 38.04 15.71C38.2 15.91 38.29 16.1404 38.29 16.4004C38.29 16.7102 38.1896 16.9801 37.9697 17.21C37.7497 17.4399 37.4698 17.6105 37.1299 17.7305C36.78 17.8504 36.4297 17.9102 36.0498 17.9102C35.61 17.9101 35.2002 17.8298 34.8203 17.6699C34.4403 17.5099 34.1096 17.2702 33.8496 16.9502C33.5896 16.6302 33.4 16.2495 33.29 15.8096L30.9697 16.1504C31.0898 16.9303 31.3704 17.6105 31.8203 18.1904C32.2602 18.7702 32.8403 19.2096 33.54 19.5195L33.5703 19.4805C34.2702 19.7903 35.0901 19.9502 35.9199 19.9502C36.7499 19.9502 37.5302 19.8103 38.2402 19.5303C38.9502 19.2503 39.5297 18.8295 39.9697 18.2695C40.4096 17.7096 40.6299 17.0197 40.6299 16.2197C40.6298 15.4999 40.4701 14.9197 40.1201 14.4697C39.7701 14.0198 39.3796 13.7002 38.9297 13.4902C38.4797 13.2803 37.9598 13.1004 37.3799 12.9404L35.3398 12.3896C34.86 12.2597 34.4801 12.1099 34.2002 11.9199C33.9202 11.7399 33.7803 11.4699 33.7803 11.1299C33.7803 10.8701 33.87 10.6503 34.0498 10.4404C34.2298 10.2305 34.4698 10.0797 34.7598 9.96973C35.0497 9.86973 35.37 9.80958 35.71 9.80957C36.09 9.80957 36.4503 9.88953 36.7803 10.0195C37.1102 10.1495 37.3997 10.3502 37.6396 10.6201C37.8796 10.8901 38.0399 11.2099 38.1299 11.5898L40.5303 11.1797C40.2403 10.0699 39.6802 9.22983 38.8604 8.62988C38.0404 8.03992 37.0102 7.74027 35.7803 7.74023ZM19.8701 19.7598H23.6699C24.2399 19.7598 24.7103 19.7304 25.0703 19.6904C25.9902 19.5804 26.7803 19.2597 27.4502 18.7197C28.11 18.1798 28.6198 17.4901 28.9697 16.6504C29.3097 15.8104 29.4902 14.8899 29.4902 13.8799C29.4902 12.87 29.3197 11.9503 28.9697 11.1104C28.6197 10.2704 28.1201 9.58003 27.4502 9.04004C26.7803 8.5001 25.9902 8.18035 25.0703 8.07031C24.7103 8.02031 24.2499 8 23.6699 8H19.8701V19.7598ZM23.6699 10.0801C24.2399 10.0801 24.6704 10.1102 24.9404 10.1602C25.4202 10.2602 25.8205 10.4799 26.1504 10.8398C26.4803 11.1998 26.7197 11.6401 26.8896 12.1699C27.0596 12.6999 27.1396 13.2801 27.1396 13.8701C27.1396 14.46 27.0604 15.0101 26.9004 15.54C26.7404 16.07 26.4999 16.5099 26.1699 16.8799C25.84 17.2498 25.4303 17.48 24.9404 17.5801C24.6704 17.6301 24.2499 17.6602 23.6699 17.6602V17.6504H22.1201V10.0801H23.6699Z" fill="currentColor"/>
</svg>
